<?xml version="1.0" encoding="iso-8859-1"?>
<!-- Generator: Adobe Illustrator 19.0.0, SVG Export Plug-In . SVG Version: 6.00 Build 0)  -->
<svg version="1.1" id="Capa_1" xmlns="http://www.w3.org/2000/svg" xmlns:xlink="http://www.w3.org/1999/xlink" x="0px" y="0px"
	 viewBox="0 0 512 512" style="enable-background:new 0 0 512 512;" xml:space="preserve">
<path style="fill:#D12136;" d="M397.127,253.775l-65.324-5.297c-9.719-0.786-16.967-9.295-16.181-19.015
	c0.371-4.643,2.569-8.951,6.109-11.988l49.735-42.664c-18.017-25.635-44.023-44.57-73.949-53.848l-25.238,60.557
	c-3.752,9.004-14.089,13.25-23.093,9.498c-4.299-1.792-7.715-5.208-9.498-9.498l-25.176-60.504
	c-29.926,9.278-55.932,28.213-73.949,53.848l49.735,42.664c7.406,6.347,8.263,17.487,1.916,24.894
	c-3.037,3.54-7.345,5.729-11.988,6.109l-65.324,5.297c0,0.75-0.115,1.474-0.115,2.225c-0.018,30.588,9.966,60.345,28.425,84.745
	l55.887-34.092c8.324-5.076,19.191-2.445,24.267,5.879c2.428,3.981,3.178,8.757,2.101,13.286L210.3,389.606
	c29.617,10.284,61.837,10.284,91.454,0l-15.166-63.735c-2.26-9.481,3.593-19.006,13.082-21.266
	c4.529-1.077,9.304-0.327,13.286,2.101l55.861,34.039c18.458-24.399,28.443-54.157,28.425-84.745
	C397.241,255.25,397.144,254.526,397.127,253.775z M256,282.483c-14.627,0-26.483-11.855-26.483-26.483
	c0-14.627,11.855-26.483,26.483-26.483c14.627,0,26.483,11.855,26.483,26.483C282.483,270.627,270.627,282.483,256,282.483z"/>
<path style="fill:#2B2733;" d="M256,0C114.617,0,0,114.617,0,256s114.617,256,256,256s256-114.617,256-256S397.383,0,256,0z
	 M256,397.241c-78.009,0-141.241-63.232-141.241-141.241S177.991,114.759,256,114.759S397.241,177.991,397.241,256
	S334.009,397.241,256,397.241z"/>
<path style="fill:#1A1721;" d="M423.247,62.27c92.398,106.964,80.605,268.579-26.359,360.978
	c-96.097,83.015-238.521,83.015-334.618,0c92.354,107.008,253.97,118.89,360.978,26.527s118.89-253.97,26.527-360.978
	C441.591,79.316,432.728,70.453,423.247,62.27z"/>
<rect x="172.163" y="11.87" transform="matrix(-0.9511 0.309 -0.309 -0.9511 360.8843 -6.9291)" style="fill:#555160;" width="17.656" height="26.484"/>
<rect x="322.221" y="473.618" transform="matrix(-0.9511 0.309 -0.309 -0.9511 796.3324 847.6059)" style="fill:#3B3944;" width="17.656" height="26.484"/>
<rect x="247.172" style="fill:#555160;" width="17.655" height="26.483"/>
<rect x="247.172" y="485.517" style="fill:#3B3944;" width="17.655" height="26.483"/>
<rect x="104.479" y="46.366" transform="matrix(-0.8089 0.5879 -0.5879 -0.8089 240.0074 41.2104)" style="fill:#555160;" width="17.655" height="26.482"/>
<rect x="389.819" y="439.135" transform="matrix(-0.8089 0.5879 -0.5879 -0.8089 987.0803 583.9426)" style="fill:#3B3944;" width="17.655" height="26.482"/>
<rect x="50.772" y="100.075" transform="matrix(-0.5879 0.8089 -0.8089 -0.5879 186.3034 131.7249)" style="fill:#555160;" width="17.655" height="26.482"/>
<rect x="443.562" y="385.459" transform="matrix(-0.5879 0.8089 -0.8089 -0.5879 1040.8732 267.154)" style="fill:#3B3944;" width="17.655" height="26.482"/>
<rect x="16.286" y="167.747" transform="matrix(-0.309 0.9511 -0.9511 -0.309 205.0067 213.0275)" style="fill:#555160;" width="17.656" height="26.484"/>
<rect x="478.072" y="317.828" transform="matrix(-0.309 0.9511 -0.9511 -0.309 952.2161 -29.707)" style="fill:#3B3944;" width="17.656" height="26.484"/>
<rect y="247.172" style="fill:#555160;" width="26.483" height="17.655"/>
<rect x="485.517" y="247.172" style="fill:#3B3944;" width="26.483" height="17.655"/>
<g>
	
		<rect x="11.91" y="322.177" transform="matrix(-0.951 0.3091 -0.3091 -0.951 151.3865 638.024)" style="fill:#555160;" width="26.482" height="17.655"/>
	
		<rect x="46.322" y="389.841" transform="matrix(-0.809 0.5878 -0.5878 -0.809 342.0887 686.1806)" style="fill:#555160;" width="26.483" height="17.655"/>
	
		<rect x="385.437" y="50.769" transform="matrix(-0.5878 0.809 -0.809 -0.5878 681.2362 -227.9051)" style="fill:#555160;" width="26.483" height="17.655"/>
	
		<rect x="317.771" y="16.315" transform="matrix(-0.3091 0.951 -0.951 -0.3091 457.2421 -281.8875)" style="fill:#555160;" width="26.482" height="17.655"/>
</g>
<g>
	<path style="fill:#3B3944;" d="M502.201,185.291l-5.464-16.772l-17.302,5.623c1.28,5.773,2.392,11.599,3.275,17.505
		L502.201,185.291z"/>
	<path style="fill:#3B3944;" d="M468.295,112.666l-10.372-14.283l-6.02,4.414c2.94,5.146,5.773,10.372,8.36,15.748L468.295,112.666z
		"/>
	<path style="fill:#3B3944;" d="M98.383,457.922l14.283,10.372l5.844-8.033c-5.376-2.586-10.593-5.42-15.748-8.36L98.383,457.922z"
		/>
	<path style="fill:#3B3944;" d="M168.492,496.737l16.772,5.464l6.329-19.491c-5.906-0.883-11.732-1.995-17.505-3.275
		L168.492,496.737z"/>
</g>
<g>
	<path style="fill:#555160;" d="M477.016,193.474l5.694-1.854c-0.883-5.906-1.995-11.732-3.275-17.505l-7.883,2.56L477.016,193.474z
		"/>
	<path style="fill:#555160;" d="M446.879,128.238l13.383-9.71c-2.586-5.376-5.42-10.593-8.36-15.748l-15.404,11.193L446.879,128.238
		z"/>
	<path style="fill:#555160;" d="M113.955,436.498l-11.193,15.404c5.146,2.94,10.372,5.773,15.748,8.36l9.71-13.383L113.955,436.498z
		"/>
	<path style="fill:#555160;" d="M176.675,471.552l-2.56,7.883c5.773,1.28,11.599,2.392,17.505,3.275l1.854-5.694L176.675,471.552z"
		/>
	<path style="fill:#555160;" d="M256,70.621C153.618,70.621,70.621,153.618,70.621,256S153.618,441.379,256,441.379
		S441.379,358.382,441.379,256S358.382,70.621,256,70.621z M256,397.241c-78.009,0-141.241-63.232-141.241-141.241
		S177.991,114.759,256,114.759S397.241,177.991,397.241,256S334.009,397.241,256,397.241z"/>
</g>
<path style="fill:#3B3944;" d="M382.455,120.708c69.941,74.611,66.163,191.797-8.448,261.747c-71.23,66.772-182.06,66.772-253.29,0
	c69.738,74.814,186.924,78.927,261.747,9.19s78.927-186.924,9.19-261.747C388.696,126.729,385.624,123.666,382.455,120.708z"/>
<g>
	<path style="fill:#9C1928;" d="M336.331,140.032c-11.891-8.298-24.991-14.716-38.841-19.015l-4.864,11.661
		C307.43,133.455,322.092,135.918,336.331,140.032z"/>
	<path style="fill:#9C1928;" d="M223.091,141.7l-8.58-20.683c-29.926,9.278-55.932,28.213-73.949,53.848l10.39,8.916
		C171.661,164.679,196.273,150.325,223.091,141.7z"/>
</g>
<g>
</g>
<g>
</g>
<g>
</g>
<g>
</g>
<g>
</g>
<g>
</g>
<g>
</g>
<g>
</g>
<g>
</g>
<g>
</g>
<g>
</g>
<g>
</g>
<g>
</g>
<g>
</g>
<g>
</g>
</svg>
